<?xml version="1.0" encoding="UTF-8"?>
<svg id="Calque_1" data-name="Calque 1" xmlns="http://www.w3.org/2000/svg" viewBox="0 0 1190.55 841.89">
  <defs>
    <style>
      .cls-1 {
        fill: #cad7e0;
      }

      .cls-1, .cls-2, .cls-3, .cls-4 {
        stroke-width: 0px;
      }

      .cls-2 {
        fill: #a4b1c7;
      }

      .cls-3 {
        fill: #fff;
      }

      .cls-4 {
        fill: #fafafa;
      }
    </style>
  </defs>
  <path class="cls-3" d="M690.2,708.25c-.59-43.61.46-71.36-.13-114.97l-.05-10.89c0-38.11-.03-110.17,12.87-144.58l1.55-4.87c16.3,14.85,47.67,21.2,92.03,16.27l-100.97,259.03h-5.3Z"/>
  <path class="cls-3" d="M749.45,360.11c-23.11,21.71-36.53,48.12-44.13,75.76h0c18.62,17.38,60.27,22.7,108.55,11.89,37.9-8.45,69.59-25.07,86.78-43.41,10.42-11.1,15.55-22.8,13.5-33.74-2.02-10.76-10.62-19.24-23.78-24.94-22.33-9.77-57.79-11.53-96.05-3-23.44,5.23-37.39,12.52-44.87,17.45Z"/>
  <path class="cls-4" d="M1048.35,526.35c16.02-32.4,25.7-69.33,25.7-108.29,0-11.99-2.79-37.5-4.98-46.66,0,0-69.03-44.48-148.37-50.01,0,0,60.44,33.31,60.44,149.2,0,61.85-27.07,117.46-70.19,155.85-11.39,10.19-23.88,19.13-37.27,26.68,11.33-1.56,22.41-3.95,33.17-7.13,61.71-18.24,112.78-62.17,141.56-119.78"/>
  <path class="cls-4" d="M219.01,526.49c-16.02-32.4-25.7-69.33-25.7-108.29,0-11.99,2.79-37.5,4.98-46.66,0,0,64.17-43.6,143.5-49.13,0,0-55.57,32.43-55.57,148.31,0,61.85,27.07,117.46,70.19,155.85,11.39,10.19,23.88,19.13,37.27,26.68-11.33-1.56-22.41-3.95-33.17-7.13-61.71-18.24-112.78-62.17-141.56-119.78"/>
  <path class="cls-3" d="M574.69,708.25c-.96-43.24-.96-63.82-1.27-109.71l-.31-43.91c0-38.11-4.07-75.43-.55-114.34l1.08-13.08c-16.3,14.85-68.39,27.81-102.01,19.99l97.77,261.05h5.3Z"/>
  <path class="cls-3" d="M521.22,358.11c23.82,21.74,38.67,48.5,54.3,75.07l-4.05,2.62c-2.72,1.76-5.6,3.28-8.64,4.45-29.94,11.53-60.53,15.78-107.84,5.44-39.03-8.49-71.67-25.15-89.38-43.51-10.74-11.11-16.03-22.82-13.94-33.75,2.07-10.76,10.91-19.23,24.45-24.92,22.98-9.75,59.48-11.47,98.88-2.9,24.14,5.25,38.51,12.56,46.21,17.49Z"/>
  <path class="cls-2" d="M345.02,321.91c24.67-1.62,64.28-.53,98.26,9.27,42.64,12.3,125.38,64.66,126.07,158.94,6.18-66.82,32.97-148.42,64.64-196.37-40.29-62.71-98.17-107.96-173.56-119.2-78.46-11.68-158.31,21.7-208.43,82.47-27.25,33.02-45.52,73-53.73,114.95h0c2.8-1.8,69.11-44.7,146.76-50.07Z"/>
  <path class="cls-2" d="M922.15,321.27c77.24,5.37,146.86,50.16,146.86,50.16-22.29-114.31-115.83-200.21-229.51-200.21-59.31,0-113.51,23.41-154.98,62.02-.1.1-.19.16-.29.29-62.21,55.37-111.93,151.58-114.78,262.6-.55,21.47,1.43,85.9,1.43,85.9l.52,125.5,121.01.73c-.5-48.24-.04-44.75-.55-92.98,0,0-6.48-136.66,35.68-197.42h0c29.27-45.45,76.9-77.04,127.91-90.51,18.69-4.92,47.31-7.83,67.98-5.96"/>
  <rect class="cls-1" x="571.88" y="628.2" width="120.53" height="80.05"/>
</svg>