<?xml version="1.0" encoding="UTF-8"?>
<svg id="Calque_1" data-name="Calque 1" xmlns="http://www.w3.org/2000/svg" viewBox="0 0 1190.55 841.89">
  <defs>
    <style>
      .cls-1 {
        fill: #587b9f;
      }

      .cls-1, .cls-2, .cls-3 {
        stroke-width: 0px;
      }

      .cls-2 {
        fill: #1d2945;
      }

      .cls-3 {
        fill: #cad7e0;
      }
    </style>
  </defs>
  <path class="cls-3" d="M643.26,739.95c-.66-48.84.52-79.92-.14-128.76l-.05-12.19c0-42.68-.03-123.39,14.41-161.92l1.73-5.46c18.26,16.63,53.39,23.74,103.07,18.22l-113.08,290.11h-5.93Z"/>
  <path class="cls-3" d="M709.61,350.04c-25.89,24.32-40.91,53.89-49.43,84.85h0c20.86,19.46,67.5,25.42,121.57,13.32,42.45-9.46,77.94-28.08,97.19-48.62,11.67-12.43,17.41-25.54,15.12-37.79-2.26-12.05-11.9-21.55-26.63-27.94-25.01-10.94-64.72-12.92-107.57-3.36-26.26,5.86-41.88,14.02-50.25,19.54Z"/>
  <path class="cls-2" d="M1044.37,536.23c17.94-36.29,28.78-77.65,28.78-121.28,0-13.43-3.12-42-5.57-52.26,0,0-77.32-49.82-166.17-56.01,0,0,67.69,37.31,67.69,167.09,0,69.27-30.31,131.55-78.61,174.54-12.76,11.41-26.74,21.43-41.74,29.87,12.69-1.75,25.09-4.42,37.15-7.99,69.11-20.43,126.3-69.62,158.55-134.15"/>
  <path class="cls-2" d="M115.55,536.38c-17.94-36.29-28.78-77.65-28.78-121.28,0-13.43,3.12-42,5.57-52.26,0,0,71.86-48.83,160.71-55.02,0,0-62.23,36.32-62.23,166.1,0,69.27,30.31,131.55,78.61,174.54,12.76,11.41,26.74,21.43,41.74,29.87-12.69-1.75-25.09-4.42-37.15-7.99-69.11-20.43-126.3-69.62-158.55-134.15"/>
  <path class="cls-3" d="M513.89,739.95c-1.08-48.43-1.08-71.48-1.42-122.87l-.34-49.17c0-42.68-4.56-84.48-.62-128.06l1.21-14.65c-18.26,16.63-76.59,31.14-114.25,22.39l109.49,292.36h5.93Z"/>
  <path class="cls-3" d="M454.01,347.81c26.68,24.35,43.31,54.32,60.82,84.07l-4.53,2.94c-3.04,1.97-6.27,3.68-9.67,4.99-33.54,12.92-67.79,17.67-120.77,6.09-43.71-9.51-80.27-28.16-100.1-48.73-12.03-12.45-17.95-25.56-15.61-37.8,2.32-12.05,12.22-21.54,27.38-27.91,25.73-10.92,66.62-12.85,110.74-3.25,27.04,5.88,43.13,14.06,51.75,19.59Z"/>
  <path class="cls-1" d="M256.67,307.27c27.63-1.81,72-.59,110.04,10.38,47.76,13.78,140.42,72.42,141.19,178.01,6.92-74.83,36.92-166.22,72.39-219.93-45.12-70.23-109.95-120.91-194.38-133.49-87.87-13.09-177.3,24.3-233.44,92.36-30.52,36.99-50.98,81.75-60.18,128.74h0c3.13-2.02,77.4-50.06,164.36-56.07Z"/>
  <path class="cls-1" d="M903.03,306.54c86.5,6.01,164.48,56.17,164.48,56.17-24.97-128.02-129.72-224.23-257.05-224.23-66.43,0-127.12,26.22-173.57,69.46-.11.11-.21.18-.32.32-69.67,62.01-125.36,169.76-128.55,294.1-.62,24.05,1.6,96.21,1.6,96.21l.58,140.56,135.53.81c-.56-54.02-.05-50.12-.61-104.14,0,0-7.26-153.06,39.96-221.1h0c32.78-50.9,86.12-86.28,143.25-101.37,20.93-5.51,52.99-8.77,76.13-6.67"/>
  <rect class="cls-2" x="510.75" y="650.3" width="134.99" height="89.65"/>
</svg>